# xmcd CD database file
#
# Track frame offsets:
#	900
#	16872
#	35551
#	53051
#	69767
#	86924
#	105385
#	115405
#	130804
#	147437
#	162755
#	180191
#
# Disc length: 2585 seconds
#
# Revision: 1
# Processed by: cddbd v1.5.2PL0 Copyright (c) Steve Scherf et al.
# Submitted via: cddb-tool 0.4.7
#
DISCID=950a0d0c
DTITLE=Bangles - Sweetheart Of The Sun
DYEAR=2011
DGENRE=Rock
TTITLE0=Anna Lee
TTITLE1=Under A Cloud
TTITLE2=Ball N Chain
TTITLE3=I'll Never Be Through With You
TTITLE4=Mesmerized
TTITLE5=Circles In The Sky
TTITLE6=Sweet And Tender Romance
TTITLE7=Lay Yourself Down
TTITLE8=One Of Two
TTITLE9=What A Life
TTITLE10=Through Your Eyes
TTITLE11=Open My Eyes
EXTD=
EXTT0=
EXTT1=
EXTT2=
EXTT3=
EXTT4=
EXTT5=
EXTT6=
EXTT7=
EXTT8=
EXTT9=
EXTT10=
EXTT11=
PLAYORDER=
